<svg xmlns="http://www.w3.org/2000/svg" width="206" height="206" viewBox="0 0 206 206" fill="none">
<path d="M126.402 90.64C126.402 103.742 115.69 114.454 102.588 114.454C89.4864 114.454 78.7744 103.742 78.7744 90.64C78.7744 77.5384 89.4864 66.8264 102.588 66.8264C115.69 66.8264 126.402 77.5384 126.402 90.64ZM206 103C206 159.856 159.856 206 103 206C46.144 206 0 159.856 0 103C0 46.144 46.144 0 103 0C159.856 0 206 46.144 206 103ZM173.122 157.961C169.085 140.245 152.77 125.578 130.686 118.656C137.855 111.487 142.305 101.517 142.305 90.64C142.305 68.7216 124.506 50.9232 102.588 50.9232C80.6696 50.9232 62.8712 68.7216 62.8712 90.64C62.8712 101.599 67.3208 111.487 74.4896 118.656C52.4064 125.495 36.0912 140.245 32.0536 157.961C36.4208 163.564 41.4472 168.59 46.968 173.04V166.448C46.968 146.919 72.4296 130.357 102.588 130.357C132.746 130.357 158.208 146.837 158.208 166.448V173.04C163.729 168.59 168.755 163.564 173.122 157.961Z" fill="#032D42"/>
</svg>